<?xml version="1.0" encoding="utf-8"?>
<!-- Generator: Adobe Illustrator 27.0.1, SVG Export Plug-In . SVG Version: 6.00 Build 0)  -->
<svg version="1.1" id="Layer_1" xmlns="http://www.w3.org/2000/svg" xmlns:xlink="http://www.w3.org/1999/xlink" x="0px" y="0px"
	 viewBox="0 0 700 700" style="enable-background:new 0 0 700 700;" xml:space="preserve">
<style type="text/css">
	.st0{fill:#A26400;}
	.st1{fill:#FFD0EF;}
</style>
<path class="st0" d="M347.1,23.8c-137.7,0-249.7,112.1-249.7,249.8c0,137.7,112,249.7,249.7,249.7c137.7,0,249.8-112,249.7-249.7
	C596.8,135.8,484.8,23.8,347.1,23.8z M347.1,364.4c-46.1,0-83.5-37.4-83.5-83.5c0-16.1,4.6-31.1,12.5-43.8
	c12.6-27.8,40.5-47.1,73-47.1c42,0,76.5,32.5,79.7,73.7c1.2,5.6,1.8,11.3,1.8,17.2C430.5,327,393.1,364.4,347.1,364.4z"/>
<path class="st1" d="M536.8,233.4c-10.8-16.1-24.2-36.1-30.2-65.5c-9.8-47.4-48.9-56.1-83.3-63.7c-17.2-3.8-32-7-40.4-15.5
	c-8.3-8.3-21.7-13.2-35.8-13.2c-14.1,0-27.4,4.9-36.4,13.4c-22.8,21.7-64.2,26.6-72.9,27.4l0,0c-39.7,16.9-41.4,35.6-43.7,61.3
	c-1.9,21.4-4.1,45.7-29,70.6c-26.7,26.7-17.9,42.2-2,70.4c10.5,18.5,22.4,39.4,25.2,67.9c3.8,38,9.8,39.7,35.2,46.8
	c14.9,4.2,35.4,10,62.3,25.3c57.8,33.1,66.8,27.4,113,6.8c9.4-4.2,20.1-9,32.7-14.2c39.2-16,43.2-27,51.2-48.9
	c6.5-17.8,15.3-42.2,45.1-78.1C566.6,277.7,556,262,536.8,233.4z M351.1,362.4c-46.1,0-83.5-37.4-83.5-83.5
	c0-46,37.4-83.5,83.5-83.5c46,0,83.5,37.4,83.5,83.5C434.6,324.9,397.1,362.4,351.1,362.4z"/>
<g>
	<path d="M350.2,381c-56.1,0-101.7-45.6-101.7-101.7c0-56.1,45.6-101.7,101.7-101.7c56.1,0,101.7,45.6,101.7,101.7
		C451.9,335.4,406.2,381,350.2,381L350.2,381z M350.2,195.8c-46.1,0-83.5,37.4-83.5,83.5c0,46,37.4,83.5,83.5,83.5
		c46,0,83.5-37.4,83.5-83.5C433.6,233.2,396.2,195.8,350.2,195.8L350.2,195.8z"/>
	<path d="M350.2,540.5C206.5,540.5,89.7,423.6,89.7,280c0-143.6,116.8-260.5,260.5-260.5c143.6,0,260.5,116.9,260.5,260.5
		C610.7,423.6,493.8,540.5,350.2,540.5L350.2,540.5z M350.2,37.7c-133.6,0-242.3,108.7-242.3,242.3s108.7,242.3,242.3,242.3
		c133.6,0,242.3-108.7,242.3-242.3S483.7,37.7,350.2,37.7L350.2,37.7z"/>
	<path d="M348.1,502.2c-18.5,0-38.3-7.2-70.5-25.6c-24.9-14.3-43.4-19.4-58.2-23.6c-29.3-8.3-43.6-14.4-48.4-62.5
		c-2.5-24.7-13.4-43.9-23-60.8c-16.3-28.6-31.6-55.7,4.9-92.3c20.2-20.2,21.9-39.2,23.7-59.3c2.5-27.4,5-55.8,56.1-77
		c0.9-0.4,1.9-0.6,2.8-0.7c0.4,0,43-3.3,63.2-22.6c12.3-11.7,30.2-18.4,48.9-18.4c19.1,0,36.9,6.8,48.7,18.6
		c4.7,4.7,17.7,7.5,31.4,10.6c33.9,7.5,85.1,18.8,97.2,77.8c5.3,25.9,17.2,43.5,27.5,59c20,29.8,37.3,55.6-10,112.7
		c-27.7,33.5-35.7,55.2-42,72.7c-9.6,26.6-16.8,41.2-61.4,59.5c-12.5,5.1-23,9.8-32.2,13.9C382.8,495,366.8,502.2,348.1,502.2
		L348.1,502.2z M238.4,118.5c-39.7,16.9-41.4,35.6-43.7,61.3c-1.9,21.4-4.1,45.7-29,70.6c-26.7,26.7-17.9,42.2-2,70.4
		c10.5,18.5,22.4,39.4,25.2,67.9c3.8,38,9.8,39.7,35.2,46.8c14.9,4.2,35.4,10,62.3,25.3c57.8,33.1,66.8,27.4,113,6.8
		c9.4-4.2,20.1-9,32.7-14.2c39.2-16,43.2-27,51.2-48.9c6.5-17.8,15.3-42.2,45.1-78.1c38.6-46.6,28.1-62.3,8.9-90.9
		c-10.8-16.1-24.2-36.1-30.2-65.5c-9.8-47.4-48.9-56.1-83.3-63.7c-17.2-3.8-32-7-40.4-15.5c-8.3-8.3-21.7-13.2-35.8-13.2
		s-27.4,4.9-36.4,13.4C288.5,112.7,247.1,117.6,238.4,118.5L238.4,118.5z"/>
	<path d="M231.8,409.5c-2.6,0-5.2-1.1-7.1-3.3c-3.2-3.9-2.6-9.6,1.2-12.8l25.9-21.2c3.9-3.2,9.6-2.6,12.8,1.3
		c3.2,3.9,2.6,9.6-1.2,12.8l-25.9,21.2C235.8,408.9,233.8,409.5,231.8,409.5L231.8,409.5z"/>
	<path d="M201.8,260.5c-2.6,0-5.2-1.1-7.1-3.3c-3.2-3.9-2.6-9.6,1.2-12.8l25.9-21.2c3.8-3.2,9.6-2.6,12.8,1.3
		c3.2,3.9,2.6,9.6-1.2,12.8l-25.9,21.3C205.9,259.8,203.8,260.5,201.8,260.5L201.8,260.5z"/>
	<path d="M420.3,177c-2.6,0-5.2-1.1-7.1-3.3c-3.2-3.9-2.6-9.6,1.3-12.8l25.9-21.2c3.8-3.2,9.6-2.6,12.8,1.3
		c3.2,3.9,2.6,9.6-1.2,12.8L426,174.9C424.4,176.3,422.3,177,420.3,177L420.3,177z"/>
	<path d="M328.5,156.3c-2.6,0-5.2-1.1-7-3.3c-3.2-3.9-2.6-9.6,1.3-12.8l25.8-21.2c3.9-3.2,9.6-2.6,12.8,1.3
		c3.2,3.9,2.6,9.6-1.3,12.8l-25.8,21.2C332.6,155.6,330.6,156.3,328.5,156.3L328.5,156.3z"/>
	<path d="M486.5,351.4c-3.1,0-6.2-1.6-7.9-4.5l-16.9-28.9c-2.6-4.3-1.1-9.9,3.2-12.5c4.3-2.5,9.9-1.1,12.5,3.3l16.9,28.9
		c2.6,4.3,1.1,9.9-3.2,12.5C489.6,351,488,351.4,486.5,351.4L486.5,351.4z"/>
	<path d="M495.2,264.2c-3.1,0-6.1-1.6-7.9-4.5l-16.9-28.9c-2.5-4.3-1.1-9.9,3.3-12.5c4.3-2.5,9.9-1.1,12.5,3.3l16.9,28.9
		c2.5,4.3,1.1,9.9-3.3,12.5C498.4,263.8,496.8,264.2,495.2,264.2z"/>
	<path d="M418.4,411.2c-4.1,0-7.9-2.8-8.9-7c-1.1-4.9,1.9-9.8,6.8-10.9l32.6-7.7c4.9-1.3,9.8,1.9,11,6.8c1.1,4.9-1.9,9.8-6.8,10.9
		l-32.6,7.7C419.8,411.2,419.1,411.2,418.4,411.2L418.4,411.2z"/>
	<path d="M342.2,451.2c-3.9,0-7.5-2.5-8.7-6.5l-9.7-32c-1.5-4.8,1.3-9.9,6.1-11.4c4.9-1.4,9.9,1.3,11.4,6.1l9.7,32
		c1.5,4.8-1.2,9.9-6,11.4C344,451.1,343.1,451.2,342.2,451.2L342.2,451.2z"/>
	<path d="M219.5,351.4c-3.9,0-7.5-2.5-8.7-6.5l-9.7-32c-1.5-4.8,1.3-9.9,6.1-11.4c4.9-1.5,9.9,1.3,11.4,6.1l9.7,32
		c1.5,4.8-1.2,9.9-6.1,11.4C221.3,351.3,220.4,351.4,219.5,351.4L219.5,351.4z"/>
	<path d="M268.1,182.2c-0.8,0-1.6-0.1-2.4-0.3l-32.2-9c-4.8-1.3-7.7-6.3-6.3-11.2c1.4-4.8,6.3-7.7,11.2-6.3l32.2,9
		c4.8,1.3,7.7,6.4,6.3,11.2C275.7,179.6,272.1,182.2,268.1,182.2L268.1,182.2z"/>
</g>
</svg>
